<?xml version="1.0" encoding="UTF-8" standalone="no"?>
<!-- Created with Inkscape (http://www.inkscape.org/) -->

<svg
   xmlns:dc="http://purl.org/dc/elements/1.1/"
   xmlns:cc="http://creativecommons.org/ns#"
   xmlns:rdf="http://www.w3.org/1999/02/22-rdf-syntax-ns#"
   xmlns:svg="http://www.w3.org/2000/svg"
   xmlns="http://www.w3.org/2000/svg"
   xmlns:sodipodi="http://sodipodi.sourceforge.net/DTD/sodipodi-0.dtd"
   xmlns:inkscape="http://www.inkscape.org/namespaces/inkscape"
   width="102"
   height="102"
   viewBox="0 0 26.9875 26.9875"
   version="1.1"
   id="svg8"
   inkscape:version="0.92.2 2405546, 2018-03-11"
   sodipodi:docname="lcs_stub.svg">
  <defs
     id="defs2" />
  <sodipodi:namedview
     id="base"
     pagecolor="#ffffff"
     bordercolor="#666666"
     borderopacity="1.0"
     inkscape:pageopacity="0.0"
     inkscape:pageshadow="2"
     inkscape:zoom="0.75"
     inkscape:cx="-493.48913"
     inkscape:cy="155.05514"
     inkscape:document-units="mm"
     inkscape:current-layer="layer1"
     showgrid="false"
     units="px"
     width="128px"
     inkscape:pagecheckerboard="false"
     inkscape:window-width="1920"
     inkscape:window-height="1007"
     inkscape:window-x="1920"
     inkscape:window-y="0"
     inkscape:window-maximized="1"
     showguides="false"
     showborder="false"
     objecttolerance="4"
     fit-margin-top="0"
     fit-margin-left="0"
     fit-margin-right="0"
     fit-margin-bottom="0" />
  <metadata
     id="metadata5">
    <rdf:RDF>
      <cc:Work
         rdf:about="">
        <dc:format>image/svg+xml</dc:format>
        <dc:type
           rdf:resource="http://purl.org/dc/dcmitype/StillImage" />
        <dc:title></dc:title>
        <cc:license
           rdf:resource="http://creativecommons.org/licenses/by-sa/4.0/" />
      </cc:Work>
      <cc:License
         rdf:about="http://creativecommons.org/licenses/by-sa/4.0/">
        <cc:permits
           rdf:resource="http://creativecommons.org/ns#Reproduction" />
        <cc:permits
           rdf:resource="http://creativecommons.org/ns#Distribution" />
        <cc:requires
           rdf:resource="http://creativecommons.org/ns#Notice" />
        <cc:requires
           rdf:resource="http://creativecommons.org/ns#Attribution" />
        <cc:permits
           rdf:resource="http://creativecommons.org/ns#DerivativeWorks" />
        <cc:requires
           rdf:resource="http://creativecommons.org/ns#ShareAlike" />
      </cc:License>
    </rdf:RDF>
  </metadata>
  <g
     inkscape:groupmode="layer"
     id="layer2"
     inkscape:label="arboards"
     transform="translate(-66.939577,-112.41681)"
     style="display:inline" />
  <g
     inkscape:label="main"
     inkscape:groupmode="layer"
     id="layer1"
     transform="translate(-66.939577,-375.55013)"
     style="display:inline">
    <circle
       id="circle5264"
       cx="80.433327"
       cy="389.04388"
       style="fill:#00637c;fill-opacity:1;stroke-width:0.36637816"
       r="13.49375" />
    <path
       id="path5266"
       style="fill:#ffd200;fill-opacity:1;stroke-width:0.33045873"
       sodipodi:type="arc"
       sodipodi:cx="80.36718"
       sodipodi:cy="389.11005"
       sodipodi:rx="12.170834"
       sodipodi:ry="12.170834"
       sodipodi:start="5.4977871"
       sodipodi:end="2.3561945"
       d="m 88.973258,380.50397 a 12.170834,12.170834 0 0 1 3.150044,11.75612 12.170834,12.170834 0 0 1 -8.606079,8.60608 12.170834,12.170834 0 0 1 -11.756122,-3.15004 l 8.606079,-8.60608 z" />
    <path
       id="path5268"
       style="fill:#00e100;fill-opacity:1;stroke-width:0.33045873"
       sodipodi:type="arc"
       sodipodi:cx="80.36718"
       sodipodi:cy="389.11005"
       sodipodi:rx="12.170834"
       sodipodi:ry="12.170834"
       sodipodi:start="2.3561945"
       sodipodi:end="5.4977871"
       d="m 71.761101,397.71613 a 12.170834,12.170834 0 0 1 0,-17.21216 12.170834,12.170834 0 0 1 17.212157,0 l -8.606078,8.60608 z" />
    <circle
       id="circle5270"
       cx="80.433327"
       cy="389.04388"
       style="fill:#1ac1ff;fill-opacity:1;stroke-width:0.2945393"
       r="10.847917" />
    <path
       id="path5272"
       d="m 87.222602,386.49159 -0.384132,-1.00681 -0.681115,-1.78536 c -0.584739,-1.5324 -1.979437,-2.52236 -3.553895,-2.52236 h -4.340268 c -1.574117,0 -2.969154,0.98996 -3.553895,2.52236 l -0.681114,1.78536 -0.384131,1.00681 c -0.824309,0.32854 -1.412809,1.15834 -1.412809,2.13791 v 1.71979 c 0,0.57757 0.21052,1.09888 0.546805,1.5023 v 1.93729 c 0,0.63309 0.489733,1.14652 1.093612,1.14652 h 1.093611 c 0.603878,0 1.093611,-0.51343 1.093611,-1.14652 v -1.14653 h 8.74889 v 1.14653 c 0,0.63309 0.489732,1.14652 1.09361,1.14652 h 1.09361 c 0.603881,0 1.093613,-0.51343 1.093613,-1.14652 v -1.93729 c 0.336284,-0.40307 0.546805,-0.92437 0.546805,-1.5023 v -1.71979 c 0,-0.97957 -0.588499,-1.80937 -1.412808,-2.13791 z m -10.482605,-1.9405 c 0.249138,-0.65282 0.852333,-1.08097 1.523195,-1.08097 h 4.340268 c 0.670862,0 1.274059,0.42815 1.523197,1.08097 l 0.681115,1.78535 h -8.74889 z m -1.774726,5.79103 c -0.656167,0 -1.093611,-0.45717 -1.093611,-1.14294 0,-0.68577 0.437444,-1.14295 1.093611,-1.14295 0.656167,0 1.640416,1.02865 1.640416,1.71443 0,0.68576 -0.984249,0.57146 -1.640416,0.57146 z m 10.936111,0 c -0.656166,0 -1.640418,0.1143 -1.640418,-0.57146 0,-0.68578 0.984252,-1.71443 1.640418,-1.71443 0.656166,0 1.09361,0.45718 1.09361,1.14295 0,0.68577 -0.437444,1.14294 -1.09361,1.14294 z"
       inkscape:connector-curvature="0"
       style="fill:#ffffff;fill-opacity:1;stroke-width:0.0349924;image-rendering:auto" />
    <rect
       y="381.34601"
       x="88.157692"
       height="1.5463774"
       width="1.286288"
       id="rect5328"
       style="fill:#ffd200;fill-opacity:1;stroke:#00ff00;stroke-width:0.09193701;stroke-miterlimit:4;stroke-dasharray:none;stroke-opacity:0" />
    <rect
       style="fill:#00e100;fill-opacity:1;stroke:#00ff00;stroke-width:0.09171272;stroke-miterlimit:4;stroke-dasharray:none;stroke-opacity:0"
       id="rect5330"
       width="1.2800196"
       height="1.5463774"
       x="71.534981"
       y="395.14877" />
  </g>
</svg>
